<svg id="Layer_1" data-name="Layer 1" xmlns="http://www.w3.org/2000/svg" viewBox="0 0 165 129.84">
<title>keg-icon</title>
<path d="M4,91.81H0V88.73a7.26,7.26,0,0,1,7.25-7.25h3.26v4H7.25A3.22,3.22,0,0,0,4,88.73v3.08Z" style="fill:#fdb714"/><rect x="17.17" y="80.77" width="7.38" height="5.45" style="fill:#fdb714"/><rect x="10.21" y="75.56" width="7.38" height="5.45" style="fill:#fdb714"/><rect x="12.45" y="66.24" width="2.9" height="9.32" style="fill:#fdb714"/><path d="M21.53,69a1.42,1.42,0,0,1-1.42,1.42H7.69A1.42,1.42,0,0,1,6.27,69h0a1.42,1.42,0,0,1,1.42-1.42H20.11A1.42,1.42,0,0,1,21.53,69h0Z" style="fill:#fedb2d"/><circle cx="13.9" cy="83.5" r="5.21" style="fill:#fedb2d"/><circle cx="30.16" cy="83.5" r="8.24" style="fill:#fedb2d"/><path d="M53.5,104.83v19.68H71.43a67.33,67.33,0,0,1,24.07-4.43V104.83h-42Z" style="fill:#bc802b"/><path d="M95.49,104.83v15.25a67.34,67.34,0,0,1,24.07,4.43h17.93V104.83h-42Z" style="fill:#ab6f29"/><path d="M102.59,0h-7.1V18C99.41,18,102.59,4.78,102.59,0Z" style="fill:#fdb714"/><path d="M88.4,0c0,4.78,3.18,18,7.1,18h0V0H88.4Z" style="fill:#fedb2d"/><path d="M95.49,52.2c34.51,0,67.22,3.33,69.51,3.57V41.41c-2.29-.71-35-10.71-69.51-10.71V52.2Z" style="fill:#ab6f29"/><path d="M95.49,52.2V30.69h0C61,30.69,28.3,40.68,26,41.4V55.77c2.32-.24,35-3.57,69.51-3.57h0Z" style="fill:#bc802b"/><path d="M95.49,30.69V9.19c-21.79,0-42.88,6.67-56,11.87-2.89,1.14-5.38,2.22-7.42,3.13C28.19,25.94,26,27.11,26,27.11V41.4c2.32-.72,35-10.71,69.51-10.71h0Z" style="fill:#af7029"/><path d="M158.91,24.19c-2-.91-4.54-2-7.43-3.13-13.12-5.2-34.2-11.87-56-11.87v21.5c34.51,0,67.22,10,69.51,10.71V27.11S162.79,25.94,158.91,24.19Z" style="fill:#9d5c25"/><path d="M95.49,73.7V52.2h0C61,52.2,28.3,55.53,26,55.77V70.13c2.32,0.24,35,3.57,69.51,3.57h0Z" style="fill:#af7029"/><path d="M95.49,73.7c34.51,0,67.22-3.33,69.51-3.57V55.77c-2.29-.24-35-3.57-69.51-3.57V73.7Z" style="fill:#9d5c25"/><path d="M95.49,95.21V73.7h0C61,73.7,28.3,70.38,26,70.13V84.5c2.32,0.72,35,10.71,69.5,10.71h0Z" style="fill:#a76628"/><path d="M95.49,95.21c34.51,0,67.22-10,69.51-10.71V70.13c-2.29.24-35,3.57-69.51,3.57v21.5Z" style="fill:#955223"/><path d="M95.49,95.21C61,95.21,28.3,85.22,26,84.5V98.79s2.21,1.17,6.09,2.91c2,0.92,4.53,2,7.42,3.14,13.12,5.2,34.21,11.88,56,11.88V95.21h0Z" style="fill:#a05f26"/><path d="M95.49,116.71c21.79,0,42.87-6.67,56-11.88,2.89-1.14,5.39-2.22,7.43-3.14,3.88-1.74,6.09-2.91,6.09-2.91V84.5c-2.29.71-35,10.71-69.51,10.71v21.51Z" style="fill:#8d4a20"/><path d="M39.49,21.06v83.77c-2.89-1.14-5.38-2.22-7.42-3.14V24.19C34.11,23.28,36.6,22.2,39.49,21.06Z" style="fill:#fedb2d"/><path d="M158.91,24.19v77.5c-2,.92-4.54,2-7.43,3.14V21.06C154.37,22.2,156.87,23.28,158.91,24.19Z" style="fill:#fdb714"/><polygon points="53.5 99.98 42.51 96.61 42.51 129.84 53.5 129.84 53.5 99.98" style="fill:#8d4a20"/><polygon points="137.49 99.98 148.48 96.61 148.48 129.84 137.49 129.84 137.49 99.98" style="fill:#a76628"/></svg>