<svg id="Layer_1" data-name="Layer 1" xmlns="http://www.w3.org/2000/svg" viewBox="0 0 156.47 165">
<title>pint</title>
<path d="M117.39,117.07c29.5-12.44,40.73-50.26,24-62.13-14.86-10.54-27.48,4.32-27.48,4.32V47.84s20.4-13.12,35.2,4.55c15.74,18.79,6.45,51.47-29.61,79.66Z" style="fill:#fedb2d"/><path d="M62.68,26.82H25.31c-0.19,5.82-1,29.45-1.71,44.27-1.14,22.85-4.33,56.2-6.18,73.36S15,165,32.58,165H69.64V26.82h-7Z" style="fill:#fedb2d"/><path d="M121.86,144.46c-1.85-17.16-5-50.51-6.18-73.36-0.74-14.83-1.52-38.45-1.71-44.27H69.64V165h37.07C124.33,165,123.71,161.62,121.86,144.46Z" style="fill:#fdb714"/><path d="M69.64,26.82H30.53c0,3.67-.14,14.67-0.46,28.12H69.64V26.82Z" style="fill:#f5f3e2"/><path d="M109.21,54.94c-0.32-13.44-.43-24.45-0.46-28.12H69.64V54.94h39.57Z" style="fill:#edeacf"/><path d="M110.61,92.54c-0.68-12.22-1.12-25.84-1.39-37.6H69.64v84c23.58,0.39,32.25,6.91,38.44,2.18C113.92,136.63,112.08,119.14,110.61,92.54Z" style="fill:#552b0f"/><path d="M30.07,54.94c-0.28,11.75-.71,25.38-1.39,37.6-1.48,26.6-3.31,44.09,2.53,48.55,6.19,4.73,14.86-1.79,38.44-2.18v-84H30.07Z" style="fill:#6c3b17"/><circle cx="51.26" cy="74.14" r="3.36" style="fill:#552b0f"/><circle cx="38.86" cy="101.97" r="3.36" style="fill:#552b0f"/><circle cx="58.56" cy="92.35" r="3.36" style="fill:#552b0f"/><circle cx="49.5" cy="122.4" r="3.36" style="fill:#552b0f"/><circle cx="83.61" cy="69.73" r="3.36" style="fill:#6c3b17"/><circle cx="81.62" cy="107.76" r="3.36" style="fill:#6c3b17"/><circle cx="96.66" cy="128.87" r="3.36" style="fill:#6c3b17"/><circle cx="95.98" cy="93.19" r="3.36" style="fill:#6c3b17"/><path d="M111.46,1.35a13.27,13.27,0,0,0-9.81,4.33,18.62,18.62,0,0,0-26.9,5,11.94,11.94,0,0,0-5.1-1.94V32.56a11.94,11.94,0,0,0,5.1-1.94,18.66,18.66,0,0,0,33.17-3.12A13.32,13.32,0,1,0,111.46,1.35Z" style="fill:#e4dfbe"/><path d="M68,8.67A12,12,0,0,0,58.77,13a20.53,20.53,0,0,0-38.86,1.92A16.52,16.52,0,1,0,15.82,47.6c0,0.19,0,.38,0,0.57A8.64,8.64,0,1,0,33,46.79,11.07,11.07,0,0,0,48.07,39.3a20.6,20.6,0,0,0,10.64-11,11.94,11.94,0,0,0,10.93,4.3V8.78A12,12,0,0,0,68,8.67Z" style="fill:#edeacf"/><path d="M20.34,57.31c-3.46,0-6.88,6.59-6.88,10a6.26,6.26,0,1,0,12.52,0C26,63.89,23.8,57.31,20.34,57.31Z" style="fill:#edeacf"/></svg>